<svg width="24" height="24" viewBox="0 0 24 24" fill="none" xmlns="http://www.w3.org/2000/svg">
<path d="M13.125 16.5C13.125 16.5995 13.0855 16.6948 13.0152 16.7652C12.9448 16.8355 12.8495 16.875 12.75 16.875C12.4516 16.875 12.1655 16.7565 11.9545 16.5455C11.7435 16.3345 11.625 16.0484 11.625 15.75V12C11.625 11.9005 11.5855 11.8052 11.5152 11.7348C11.4448 11.6645 11.3495 11.625 11.25 11.625C11.1505 11.625 11.0552 11.5855 10.9848 11.5152C10.9145 11.4448 10.875 11.3495 10.875 11.25C10.875 11.1505 10.9145 11.0552 10.9848 10.9848C11.0552 10.9145 11.1505 10.875 11.25 10.875C11.5484 10.875 11.8345 10.9935 12.0455 11.2045C12.2565 11.4155 12.375 11.7016 12.375 12V15.75C12.375 15.8495 12.4145 15.9448 12.4848 16.0152C12.5552 16.0855 12.6505 16.125 12.75 16.125C12.8495 16.125 12.9448 16.1645 13.0152 16.2348C13.0855 16.3052 13.125 16.4005 13.125 16.5ZM11.625 8.625C11.7733 8.625 11.9183 8.58101 12.0417 8.4986C12.165 8.41619 12.2611 8.29906 12.3179 8.16201C12.3747 8.02497 12.3895 7.87417 12.3606 7.72868C12.3317 7.5832 12.2602 7.44956 12.1553 7.34467C12.0504 7.23978 11.9168 7.16835 11.7713 7.13941C11.6258 7.11047 11.475 7.12532 11.338 7.18209C11.2009 7.23886 11.0838 7.33499 11.0014 7.45832C10.919 7.58166 10.875 7.72666 10.875 7.875C10.875 8.07391 10.954 8.26468 11.0947 8.40533C11.2353 8.54598 11.4261 8.625 11.625 8.625ZM21.375 12C21.375 13.8542 20.8252 15.6668 19.795 17.2085C18.7649 18.7502 17.3007 19.9518 15.5877 20.6614C13.8746 21.3709 11.9896 21.5566 10.171 21.1949C8.35246 20.8331 6.682 19.9402 5.37088 18.6291C4.05976 17.318 3.16688 15.6475 2.80514 13.829C2.44341 12.0104 2.62906 10.1254 3.33863 8.41234C4.04821 6.69929 5.24982 5.23511 6.79153 4.20497C8.33324 3.17483 10.1458 2.625 12 2.625C14.4856 2.62773 16.8686 3.61633 18.6261 5.37389C20.3837 7.13145 21.3723 9.51443 21.375 12ZM20.625 12C20.625 10.2941 20.1192 8.62658 19.1714 7.20821C18.2237 5.78983 16.8767 4.68434 15.3006 4.03154C13.7246 3.37873 11.9904 3.20793 10.3174 3.54073C8.64426 3.87352 7.10744 4.69498 5.90121 5.9012C4.69498 7.10743 3.87353 8.64426 3.54073 10.3173C3.20793 11.9904 3.37874 13.7246 4.03154 15.3006C4.68435 16.8767 5.78984 18.2237 7.20821 19.1714C8.62658 20.1192 10.2941 20.625 12 20.625C14.2867 20.6225 16.4791 19.713 18.0961 18.0961C19.713 16.4791 20.6225 14.2867 20.625 12Z" fill="#1DB954"/>
</svg>
