<svg width="9" height="16" viewBox="0 0 9 16" fill="none" xmlns="http://www.w3.org/2000/svg">
<path d="M8.76552 8.26534L1.26552 15.7653C1.23068 15.8002 1.18932 15.8278 1.1438 15.8467C1.09827 15.8655 1.04948 15.8752 1.00021 15.8752C0.950936 15.8752 0.902145 15.8655 0.856623 15.8467C0.8111 15.8278 0.769738 15.8002 0.734896 15.7653C0.700055 15.7305 0.672418 15.6891 0.653562 15.6436C0.634706 15.5981 0.625 15.5493 0.625 15.5C0.625 15.4508 0.634706 15.402 0.653562 15.3564C0.672418 15.3109 0.700055 15.2696 0.734896 15.2347L7.96958 8.00003L0.734896 0.765338C0.664531 0.694973 0.625 0.599537 0.625 0.500025C0.625 0.400514 0.664531 0.305078 0.734896 0.234713C0.805261 0.164347 0.900697 0.124817 1.00021 0.124817C1.09972 0.124817 1.19516 0.164347 1.26552 0.234713L8.76552 7.73471C8.80039 7.76954 8.82805 7.8109 8.84692 7.85642C8.86579 7.90195 8.8755 7.95075 8.8755 8.00003C8.8755 8.04931 8.86579 8.0981 8.84692 8.14363C8.82805 8.18915 8.80039 8.23051 8.76552 8.26534Z" fill="white"/>
</svg>
