<svg width="24" height="24" viewBox="0 0 24 24" fill="none" xmlns="http://www.w3.org/2000/svg">
<path d="M19.0155 18.4847C19.0859 18.5551 19.1254 18.6505 19.1254 18.75C19.1254 18.8495 19.0859 18.945 19.0155 19.0153C18.9452 19.0857 18.8497 19.1252 18.7502 19.1252C18.6507 19.1252 18.5553 19.0857 18.4849 19.0153L12.0002 12.5307L5.51552 19.0153C5.44516 19.0857 5.34972 19.1252 5.25021 19.1252C5.1507 19.1252 5.05526 19.0857 4.9849 19.0153C4.91453 18.945 4.875 18.8495 4.875 18.75C4.875 18.6505 4.91453 18.5551 4.9849 18.4847L11.4696 12L4.9849 5.51534C4.91453 5.44497 4.875 5.34954 4.875 5.25003C4.875 5.15051 4.91453 5.05508 4.9849 4.98471C5.05526 4.91435 5.1507 4.87482 5.25021 4.87482C5.34972 4.87482 5.44516 4.91435 5.51552 4.98471L12.0002 11.4694L18.4849 4.98471C18.5197 4.94987 18.5611 4.92223 18.6066 4.90338C18.6521 4.88452 18.7009 4.87482 18.7502 4.87482C18.7995 4.87482 18.8483 4.88452 18.8938 4.90338C18.9393 4.92223 18.9807 4.94987 19.0155 4.98471C19.0504 5.01955 19.078 5.06092 19.0969 5.10644C19.1157 5.15196 19.1254 5.20075 19.1254 5.25003C19.1254 5.2993 19.1157 5.34809 19.0969 5.39361C19.078 5.43913 19.0504 5.4805 19.0155 5.51534L12.5308 12L19.0155 18.4847Z" fill="white"/>
</svg>
