<svg width="20" height="16" viewBox="0 0 20 16" fill="none" xmlns="http://www.w3.org/2000/svg">
<path d="M19 0.875H1C0.900544 0.875 0.805161 0.914509 0.734835 0.984835C0.664509 1.05516 0.625 1.15054 0.625 1.25V14C0.625 14.2984 0.743526 14.5845 0.954505 14.7955C1.16548 15.0065 1.45163 15.125 1.75 15.125H18.25C18.5484 15.125 18.8345 15.0065 19.0455 14.7955C19.2565 14.5845 19.375 14.2984 19.375 14V1.25C19.375 1.15054 19.3355 1.05516 19.2652 0.984835C19.1948 0.914509 19.0995 0.875 19 0.875ZM18.0363 1.625L10 8.99094L1.96375 1.625H18.0363ZM18.25 14.375H1.75C1.65054 14.375 1.55516 14.3355 1.48484 14.2652C1.41451 14.1948 1.375 14.0995 1.375 14V2.10219L9.74688 9.78125C9.816 9.84449 9.90631 9.87957 10 9.87957C10.0937 9.87957 10.184 9.84449 10.2531 9.78125L18.625 2.10219V14C18.625 14.0995 18.5855 14.1948 18.5152 14.2652C18.4448 14.3355 18.3495 14.375 18.25 14.375Z" fill="#1DB954"/>
</svg>
