<svg width="25" height="25" viewBox="0 0 25 25" fill="none" xmlns="http://www.w3.org/2000/svg">
<path d="M18.752 4.20312H15.002C14.7036 4.20312 14.4174 4.32165 14.2065 4.53263C13.9955 4.74361 13.877 5.02976 13.877 5.32812V20.3281C13.877 20.6265 13.9955 20.9126 14.2065 21.1236C14.4174 21.3346 14.7036 21.4531 15.002 21.4531H18.752C19.0503 21.4531 19.3365 21.3346 19.5474 21.1236C19.7584 20.9126 19.877 20.6265 19.877 20.3281V5.32812C19.877 5.02976 19.7584 4.74361 19.5474 4.53263C19.3365 4.32165 19.0503 4.20312 18.752 4.20312ZM19.127 20.3281C19.127 20.4276 19.0874 20.523 19.0171 20.5933C18.9468 20.6636 18.8514 20.7031 18.752 20.7031H15.002C14.9025 20.7031 14.8071 20.6636 14.7368 20.5933C14.6665 20.523 14.627 20.4276 14.627 20.3281V5.32812C14.627 5.22867 14.6665 5.13329 14.7368 5.06296C14.8071 4.99263 14.9025 4.95312 15.002 4.95312H18.752C18.8514 4.95312 18.9468 4.99263 19.0171 5.06296C19.0874 5.13329 19.127 5.22867 19.127 5.32812V20.3281ZM9.00195 4.20312H5.25195C4.95358 4.20312 4.66744 4.32165 4.45646 4.53263C4.24548 4.74361 4.12695 5.02976 4.12695 5.32812V20.3281C4.12695 20.6265 4.24548 20.9126 4.45646 21.1236C4.66744 21.3346 4.95358 21.4531 5.25195 21.4531H9.00195C9.30032 21.4531 9.58647 21.3346 9.79745 21.1236C10.0084 20.9126 10.127 20.6265 10.127 20.3281V5.32812C10.127 5.02976 10.0084 4.74361 9.79745 4.53263C9.58647 4.32165 9.30032 4.20312 9.00195 4.20312ZM9.37695 20.3281C9.37695 20.4276 9.33744 20.523 9.26712 20.5933C9.19679 20.6636 9.10141 20.7031 9.00195 20.7031H5.25195C5.1525 20.7031 5.05711 20.6636 4.98679 20.5933C4.91646 20.523 4.87695 20.4276 4.87695 20.3281V5.32812C4.87695 5.22867 4.91646 5.13329 4.98679 5.06296C5.05711 4.99263 5.1525 4.95312 5.25195 4.95312H9.00195C9.10141 4.95312 9.19679 4.99263 9.26712 5.06296C9.33744 5.13329 9.37695 5.22867 9.37695 5.32812V20.3281Z" fill="#1DB954"/>
</svg>
