<svg width="19" height="19" viewBox="0 0 19 19" fill="none" xmlns="http://www.w3.org/2000/svg">
<path d="M11.6381 1.65628C11.6631 1.5603 11.725 1.47811 11.8104 1.42769C11.8958 1.37726 11.9977 1.36271 12.0938 1.38722C13.4214 1.73301 14.6327 2.42679 15.6027 3.39697C16.5727 4.36715 17.2663 5.57859 17.6119 6.90628C17.6364 7.00224 17.622 7.10401 17.5718 7.18938C17.5215 7.27474 17.4396 7.33677 17.3438 7.36191C17.3133 7.3706 17.2817 7.37502 17.25 7.37503C17.1671 7.37476 17.0866 7.34701 17.0211 7.29612C16.9556 7.24523 16.9089 7.17408 16.8881 7.09378C16.5751 5.89572 15.9486 4.80267 15.073 3.92707C14.1974 3.05147 13.1043 2.42493 11.9063 2.11191C11.8105 2.08677 11.7285 2.02474 11.6783 1.93938C11.628 1.85401 11.6136 1.75224 11.6381 1.65628ZM11.1563 5.11191C12.5625 5.48972 13.5103 6.43753 13.8881 7.84378C13.9089 7.92408 13.9556 7.99523 14.0211 8.04612C14.0866 8.09701 14.1671 8.12476 14.25 8.12503C14.2817 8.12502 14.3133 8.1206 14.3438 8.11191C14.4397 8.08619 14.5215 8.02348 14.5712 7.93754C14.6209 7.8516 14.6346 7.74944 14.6091 7.65347C14.1591 5.96597 13.0294 4.84097 11.3438 4.38722C11.2501 4.3691 11.153 4.38738 11.0723 4.43834C10.9916 4.48929 10.9334 4.56909 10.9095 4.66147C10.8856 4.75385 10.8978 4.85187 10.9437 4.93555C10.9895 5.01924 11.0655 5.08231 11.1563 5.11191ZM18.3694 14.3669C18.2138 15.5472 17.6337 16.6304 16.7375 17.414C15.8414 18.1977 14.6905 18.6282 13.5 18.625C6.26251 18.625 0.375011 12.7375 0.375011 5.50003C0.372544 4.31004 0.803343 3.15985 1.58694 2.26428C2.37054 1.36872 3.45336 0.789018 4.63314 0.633468C4.87483 0.604084 5.11954 0.653905 5.33051 0.775449C5.54148 0.896993 5.70732 1.0837 5.80314 1.30753L7.78126 5.72691C7.8552 5.89827 7.88535 6.08534 7.86898 6.27125C7.85261 6.45717 7.79025 6.63609 7.68751 6.79191C7.67907 6.80409 7.67064 6.81628 7.66126 6.82753L5.67376 9.19097C5.64257 9.24274 5.62471 9.30144 5.62176 9.36181C5.61882 9.42218 5.63088 9.48234 5.65689 9.53691C6.39189 11.0416 7.96782 12.6053 9.49032 13.3403C9.5453 13.3658 9.60572 13.3774 9.66623 13.374C9.72673 13.3705 9.78546 13.3522 9.8372 13.3207L12.1688 11.3407L12.2044 11.3135C12.3604 11.2104 12.5397 11.1479 12.726 11.1315C12.9122 11.1151 13.0996 11.1454 13.2713 11.2197L17.6981 13.2035C17.9197 13.2999 18.1044 13.4651 18.2248 13.6746C18.3452 13.8842 18.3949 14.1269 18.3666 14.3669H18.3694ZM17.3991 13.8869L12.9703 11.9032C12.9165 11.8806 12.8581 11.8711 12.7999 11.8755C12.7417 11.8799 12.6854 11.898 12.6356 11.9285L10.3125 13.9085L10.2778 13.9347C10.1163 14.0426 9.9296 14.1068 9.73591 14.1211C9.54221 14.1354 9.34812 14.0993 9.17251 14.0163C7.48501 13.2016 5.80595 11.5338 4.99126 9.86597C4.90747 9.69171 4.87001 9.4988 4.88249 9.30585C4.89497 9.1129 4.95697 8.92642 5.06251 8.76441C5.07095 8.75128 5.08032 8.74003 5.0897 8.72784L7.07626 6.36534C7.10604 6.31471 7.1235 6.25778 7.12725 6.19916C7.13099 6.14054 7.12091 6.08186 7.09782 6.02784L5.11595 1.60847C5.08802 1.53996 5.04045 1.48124 4.97923 1.4397C4.91801 1.39816 4.84587 1.37566 4.77189 1.37503C4.7569 1.3741 4.74187 1.3741 4.72689 1.37503C3.72775 1.50742 2.81103 1.99917 2.14813 2.75835C1.48523 3.51754 1.12152 4.49217 1.12501 5.50003C1.12501 12.3232 6.67689 17.875 13.5 17.875C14.5079 17.8785 15.4825 17.5148 16.2417 16.8519C17.0009 16.189 17.4926 15.2723 17.625 14.2732C17.6336 14.1927 17.616 14.1116 17.5748 14.042C17.5336 13.9724 17.471 13.918 17.3963 13.8869H17.3991Z" fill="#1DB954"/>
</svg>
