<svg width="24" height="24" viewBox="0 0 24 24" fill="none" xmlns="http://www.w3.org/2000/svg">
<path d="M19.5 7.87506H16.125V5.25006C16.125 4.15604 15.6904 3.10683 14.9168 2.33325C14.1432 1.55966 13.094 1.12506 12 1.12506C10.906 1.12506 9.85677 1.55966 9.08318 2.33325C8.3096 3.10683 7.875 4.15604 7.875 5.25006V7.87506H4.5C4.20163 7.87506 3.91548 7.99359 3.7045 8.20457C3.49353 8.41554 3.375 8.70169 3.375 9.00006V19.5001C3.375 19.7984 3.49353 20.0846 3.7045 20.2956C3.91548 20.5065 4.20163 20.6251 4.5 20.6251H19.5C19.7984 20.6251 20.0845 20.5065 20.2955 20.2956C20.5065 20.0846 20.625 19.7984 20.625 19.5001V9.00006C20.625 8.70169 20.5065 8.41554 20.2955 8.20457C20.0845 7.99359 19.7984 7.87506 19.5 7.87506ZM8.625 5.25006C8.625 4.35496 8.98058 3.49651 9.61351 2.86358C10.2464 2.23064 11.1049 1.87506 12 1.87506C12.8951 1.87506 13.7535 2.23064 14.3865 2.86358C15.0194 3.49651 15.375 4.35496 15.375 5.25006V7.87506H8.625V5.25006ZM19.875 19.5001C19.875 19.5995 19.8355 19.6949 19.7652 19.7652C19.6948 19.8356 19.5995 19.8751 19.5 19.8751H4.5C4.40054 19.8751 4.30516 19.8356 4.23484 19.7652C4.16451 19.6949 4.125 19.5995 4.125 19.5001V9.00006C4.125 8.9006 4.16451 8.80522 4.23484 8.7349C4.30516 8.66457 4.40054 8.62506 4.5 8.62506H19.5C19.5995 8.62506 19.6948 8.66457 19.7652 8.7349C19.8355 8.80522 19.875 8.9006 19.875 9.00006V19.5001ZM12 10.8751C11.4362 10.8757 10.8933 11.0879 10.4785 11.4697C10.0637 11.8515 9.80741 12.3751 9.76026 12.9369C9.71311 13.4987 9.87857 14.0577 10.2239 14.5033C10.5692 14.9489 11.0692 15.2486 11.625 15.3432V17.2501C11.625 17.3495 11.6645 17.4449 11.7348 17.5152C11.8052 17.5856 11.9005 17.6251 12 17.6251C12.0995 17.6251 12.1948 17.5856 12.2652 17.5152C12.3355 17.4449 12.375 17.3495 12.375 17.2501V15.3432C12.9308 15.2486 13.4308 14.9489 13.7761 14.5033C14.1214 14.0577 14.2869 13.4987 14.2397 12.9369C14.1926 12.3751 13.9363 11.8515 13.5215 11.4697C13.1067 11.0879 12.5638 10.8757 12 10.8751ZM12 14.6251C11.7033 14.6251 11.4133 14.5371 11.1666 14.3723C10.92 14.2074 10.7277 13.9732 10.6142 13.6991C10.5006 13.425 10.4709 13.1234 10.5288 12.8324C10.5867 12.5415 10.7296 12.2742 10.9393 12.0644C11.1491 11.8546 11.4164 11.7118 11.7074 11.6539C11.9983 11.596 12.2999 11.6257 12.574 11.7392C12.8481 11.8528 13.0824 12.045 13.2472 12.2917C13.412 12.5384 13.5 12.8284 13.5 13.1251C13.5 13.5229 13.342 13.9044 13.0607 14.1857C12.7794 14.467 12.3978 14.6251 12 14.6251Z" fill="#1DB954"/>
</svg>
