<svg width="20" height="20" viewBox="0 0 20 20" fill="none" xmlns="http://www.w3.org/2000/svg">
<path d="M17.5 17.5L12.5 12.5M14.1667 8.33333C14.1667 9.48706 13.8246 10.6149 13.1836 11.5742C12.5426 12.5334 11.6316 13.2811 10.5657 13.7226C9.49975 14.1641 8.32686 14.2797 7.19531 14.0546C6.06375 13.8295 5.02435 13.2739 4.20855 12.4581C3.39274 11.6423 2.83717 10.6029 2.61209 9.47136C2.38701 8.3398 2.50253 7.16692 2.94404 6.10101C3.38555 5.03511 4.13322 4.12407 5.09251 3.48309C6.0518 2.84212 7.17961 2.5 8.33334 2.5C9.88043 2.5 11.3642 3.11458 12.4581 4.20854C13.5521 5.30251 14.1667 6.78624 14.1667 8.33333Z" stroke="#E4E4E4" stroke-width="2" stroke-linecap="round" stroke-linejoin="round"/>
</svg>
