<svg width="17" height="17" viewBox="0 0 17 17" fill="none" xmlns="http://www.w3.org/2000/svg">
<path d="M3.74724 8.12973H7.33671M2.34734 1.0854L15.4938 7.36697C15.6455 7.44045 15.7735 7.55518 15.863 7.69802C15.9525 7.84086 16 8.00603 16 8.1746C16 8.34318 15.9525 8.50835 15.863 8.65118C15.7735 8.79402 15.6455 8.90875 15.4938 8.98223L2.34734 15.2638C2.17283 15.365 1.96932 15.4044 1.76967 15.3756C1.57001 15.3469 1.38585 15.2518 1.24689 15.1056C1.10794 14.9594 1.0223 14.7706 1.00379 14.5698C0.985277 14.3689 1.03498 14.1677 1.14487 13.9985L3.58571 8.49765C3.63458 8.38115 3.65975 8.25607 3.65975 8.12973C3.65975 8.00339 3.63458 7.87832 3.58571 7.76181L1.14487 2.26095C1.07074 2.09368 1.04952 1.90776 1.08403 1.72809C1.11854 1.54842 1.20715 1.38359 1.33797 1.25569C1.4688 1.1278 1.63559 1.04294 1.816 1.01251C1.9964 0.982069 2.1818 1.0075 2.34734 1.0854Z" stroke="white" stroke-width="2" stroke-linecap="round" stroke-linejoin="round"/>
</svg>
