<svg width="20" height="19" viewBox="0 0 20 19" fill="none" xmlns="http://www.w3.org/2000/svg">
<path d="M16.5625 3.31938C14.8163 1.5904 12.4574 0.621887 10 0.625008H9.90625C7.43613 0.64971 5.07557 1.64833 3.33765 3.40381C1.59972 5.15929 0.624876 7.52976 0.625 10C0.625 13.8644 3.02031 17.1109 6.87719 18.4731C7.16079 18.5737 7.45941 18.6254 7.76031 18.6259C8.45488 18.6232 9.12006 18.3453 9.61014 17.8531C10.1002 17.3609 10.3753 16.6946 10.375 16C10.375 15.5027 10.5725 15.0258 10.9242 14.6742C11.2758 14.3226 11.7527 14.125 12.25 14.125H16.5822C17.1775 14.1278 17.7559 13.9271 18.2214 13.556C18.6869 13.185 19.0116 12.6659 19.1416 12.085C19.3029 11.3746 19.3813 10.6479 19.375 9.91938C19.3663 8.68789 19.1131 7.47039 18.6304 6.33745C18.1476 5.2045 17.4447 4.17866 16.5625 3.31938ZM18.4131 11.9181C18.32 12.3335 18.0877 12.7045 17.7546 12.9695C17.4215 13.2345 17.0078 13.3776 16.5822 13.375H12.25C11.5538 13.375 10.8861 13.6516 10.3938 14.1439C9.90156 14.6361 9.625 15.3038 9.625 16C9.62447 16.2995 9.55222 16.5944 9.4143 16.8602C9.27637 17.1261 9.07679 17.355 8.83226 17.5278C8.58772 17.7006 8.30534 17.8124 8.00874 17.8537C7.71215 17.8951 7.40997 17.8647 7.1275 17.7653C3.57906 16.5119 1.375 13.5363 1.375 10C1.37488 7.72786 2.27135 5.54745 3.86964 3.93249C5.46792 2.31752 7.63892 1.39847 9.91094 1.37501H10C11.2958 1.37467 12.5751 1.66632 13.7427 2.2283C14.9103 2.79027 15.9363 3.60812 16.7445 4.62108C17.5526 5.63405 18.1221 6.81609 18.4107 8.07938C18.6992 9.34267 18.6994 10.6548 18.4113 11.9181H18.4131ZM10.75 5.12501C10.75 5.27334 10.706 5.41835 10.6236 5.54169C10.5412 5.66502 10.4241 5.76115 10.287 5.81792C10.15 5.87468 9.99917 5.88954 9.85368 5.8606C9.7082 5.83166 9.57456 5.76023 9.46967 5.65534C9.36478 5.55045 9.29335 5.41681 9.26441 5.27133C9.23547 5.12584 9.25033 4.97504 9.30709 4.83799C9.36386 4.70095 9.45999 4.58382 9.58332 4.50141C9.70666 4.41899 9.85167 4.37501 10 4.37501C10.1989 4.37501 10.3897 4.45403 10.5303 4.59468C10.671 4.73533 10.75 4.9261 10.75 5.12501ZM6.625 7.37501C6.625 7.52334 6.58101 7.66835 6.4986 7.79169C6.41619 7.91502 6.29906 8.01115 6.16201 8.06792C6.02497 8.12468 5.87417 8.13954 5.72868 8.1106C5.5832 8.08166 5.44956 8.01023 5.34467 7.90534C5.23978 7.80045 5.16835 7.66681 5.13941 7.52133C5.11047 7.37584 5.12533 7.22504 5.18209 7.088C5.23886 6.95095 5.33499 6.83382 5.45832 6.75141C5.58166 6.66899 5.72666 6.62501 5.875 6.62501C6.07391 6.62501 6.26468 6.70403 6.40533 6.84468C6.54598 6.98533 6.625 7.1761 6.625 7.37501ZM6.625 12.625C6.625 12.7733 6.58101 12.9183 6.4986 13.0417C6.41619 13.165 6.29906 13.2612 6.16201 13.3179C6.02497 13.3747 5.87417 13.3895 5.72868 13.3606C5.5832 13.3317 5.44956 13.2602 5.34467 13.1553C5.23978 13.0504 5.16835 12.9168 5.13941 12.7713C5.11047 12.6258 5.12533 12.475 5.18209 12.338C5.23886 12.201 5.33499 12.0838 5.45832 12.0014C5.58166 11.919 5.72666 11.875 5.875 11.875C6.07391 11.875 6.26468 11.954 6.40533 12.0947C6.54598 12.2353 6.625 12.4261 6.625 12.625ZM14.875 7.37501C14.875 7.52334 14.831 7.66835 14.7486 7.79169C14.6662 7.91502 14.5491 8.01115 14.412 8.06792C14.275 8.12468 14.1242 8.13954 13.9787 8.1106C13.8332 8.08166 13.6996 8.01023 13.5947 7.90534C13.4898 7.80045 13.4184 7.66681 13.3894 7.52133C13.3605 7.37584 13.3753 7.22504 13.4321 7.088C13.4889 6.95095 13.585 6.83382 13.7083 6.75141C13.8317 6.66899 13.9767 6.62501 14.125 6.62501C14.3239 6.62501 14.5147 6.70403 14.6553 6.84468C14.796 6.98533 14.875 7.1761 14.875 7.37501Z" fill="#1DB954"/>
</svg>
