<svg width="20" height="20" viewBox="0 0 20 20" fill="none" xmlns="http://www.w3.org/2000/svg">
<path d="M10 0.625C8.1458 0.625 6.33324 1.17483 4.79153 2.20497C3.24982 3.23511 2.04821 4.69929 1.33863 6.41234C0.629062 8.1254 0.443406 10.0104 0.805142 11.829C1.16688 13.6475 2.05976 15.318 3.37088 16.6291C4.682 17.9402 6.35246 18.8331 8.17103 19.1949C9.9896 19.5566 11.8746 19.3709 13.5877 18.6614C15.3007 17.9518 16.7649 16.7502 17.795 15.2085C18.8252 13.6668 19.375 11.8542 19.375 10C19.3723 7.51443 18.3837 5.13145 16.6261 3.37389C14.8686 1.61633 12.4856 0.62773 10 0.625ZM4.45657 16.6019C5.01298 15.6221 5.81913 14.8073 6.7929 14.2405C7.76667 13.6737 8.87327 13.375 10 13.375C11.1267 13.375 12.2333 13.6737 13.2071 14.2405C14.1809 14.8073 14.987 15.6221 15.5434 16.6019C13.9918 17.9085 12.0285 18.625 10 18.625C7.97151 18.625 6.00821 17.9085 4.45657 16.6019ZM16.1097 16.0816C15.1781 14.5241 13.6846 13.3832 11.9369 12.8941C12.7495 12.4619 13.3942 11.7704 13.7685 10.9296C14.1428 10.0888 14.2251 9.14698 14.0024 8.25397C13.7797 7.36096 13.2648 6.56808 12.5395 6.00147C11.8143 5.43486 10.9204 5.12707 10 5.12707C9.07965 5.12707 8.18573 5.43486 7.46047 6.00147C6.73521 6.56808 6.22027 7.36096 5.99758 8.25397C5.77488 9.14698 5.85723 10.0888 6.23152 10.9296C6.60581 11.7704 7.25054 12.4619 8.06313 12.8941C6.31543 13.3832 4.82192 14.5241 3.89032 16.0816C2.68717 14.8741 1.86878 13.3372 1.53848 11.665C1.20818 9.99275 1.38079 8.26013 2.0345 6.68591C2.68821 5.1117 3.79371 3.76648 5.21142 2.82011C6.62912 1.87375 8.29545 1.36868 10 1.36868C11.7046 1.36868 13.3709 1.87375 14.7886 2.82011C16.2063 3.76648 17.3118 5.1117 17.9655 6.68591C18.6192 8.26013 18.7918 9.99275 18.4615 11.665C18.1312 13.3372 17.3128 14.8741 16.1097 16.0816ZM10 12.625C9.33249 12.625 8.67997 12.4271 8.12495 12.0562C7.56994 11.6854 7.13736 11.1583 6.88191 10.5416C6.62646 9.92486 6.55963 9.24626 6.68985 8.59157C6.82008 7.93688 7.14152 7.33552 7.61352 6.86351C8.08552 6.39151 8.68689 6.07007 9.34157 5.93985C9.99626 5.80962 10.6749 5.87646 11.2916 6.13191C11.9083 6.38735 12.4354 6.81993 12.8062 7.37495C13.1771 7.92997 13.375 8.58249 13.375 9.25C13.375 10.1451 13.0194 11.0035 12.3865 11.6365C11.7536 12.2694 10.8951 12.625 10 12.625Z" fill="#1DB954"/>
</svg>
